# xmcd
# 
# Track frame offsets:
#     150
#     17930
#     32245
#     47443
#     64201
#     81724
#     96769
#     114359
#     132324
#     149744
#     167547
#     182308
#     195519
#     212734
#     230469
#     252915
#     267805
#     283989
#     298560
#     312161
# 
# Disc length: 4421
# 
# Revision: 2
# Processed by: cddbd v1.5.2PL0 Copyright (c) Steve Scherf et al.
# Submitted via: fre:ac v1.0.31
# 
DISCID=2a114314
DTITLE=Various Artist - Bääärenstark!!! Hits 2016 - die erste - CD 3
DYEAR=2015
DGENRE=Schlager
TTITLE0=Jürgen Drews - Heut' Schlafen Wir In Meinem Cabrio
TTITLE1=Dorfrocker - Die Glöcknerin Von Dingolfing
TTITLE2=Michael Wendler - Rock Me Dancer
TTITLE3=Axel Fischer - Ich Komm Zurück (Nach Amsterdam) (Discofox Mix)
TTITLE4=Christin Stark - Wollen Wir Uns
TTITLE5=Marry - Verdammt (Dance Mix)
TTITLE6=Jörg Bausch - Auf Anderen Wegen
TTITLE7=Annemarie Eilfeld - Komm Mach Die Augen Zu!
TTITLE8=Leonard - Unser Lullaby
TTITLE9=Phil Stewman - Das(S) Leben Bleibt
TTITLE10=Isabel Varell - Verliebt Ins Leben
TTITLE11=Swiss Ladies - Jodelsong
TTITLE12=Andreas Rauch - Spiel Mit Dem Feuer
TTITLE13=Frank Lukas - Einsamer Wolf
TTITLE14=Julia Kollat - Schlaflos Wegen Dir
TTITLE15=Luisa - Die Perfekte Nacht (Tanzen Auf Den Stühlen)
TTITLE16=Jördis Tielsch - Die Kleinen Dinge (Radio Edit)
TTITLE17=Tanja Lasch - Du Lebst Gefährlich Neben Mir
TTITLE18=Uta Bresan - Du Bist Mit Nichts Vergleichbar
TTITLE19=Fantasy - Paradies Medley
EXTD=
EXTT0=
EXTT1=
EXTT2=
EXTT3=
EXTT4=
EXTT5=
EXTT6=
EXTT7=
EXTT8=
EXTT9=
EXTT10=
EXTT11=
EXTT12=
EXTT13=
EXTT14=
EXTT15=
EXTT16=
EXTT17=
EXTT18=
EXTT19=
PLAYORDER=
